<svg xmlns="http://www.w3.org/2000/svg" viewBox="0 0 248 160"><rect width="22" height="22" x="14.25" y="41" fill="#f25022" rx=".52"/><rect width="22" height="22" x="-11" y="-11" fill="#7fba00" rx=".7" transform="rotate(.1 -29768.923 28530.643)"/><path fill="#737373" d="M216.75 63v14.75q0 .75-.75.75h-3.5q-.5 0-.5-.5V63.12q0-.62-.63-.62h-2.12q-.75 0-.75-.75v-2.57a.75.74-86.3 0 1 .84-.74l1.97.27a.61.6 2.8 0 0 .69-.62c-.32-6.44 2.59-10.85 9.64-9.4a.71.7-84.6 0 1 .57.7l-.03 2.92a.5.5 0 0 1-.73.44q-1.94-1.03-3.85.24-.59.39-.64 1.09l-.28 3.89q-.05.59.55.59l5.84-.05q.77-.01.72-.77l-.19-3.35a.69.67-10.5 0 1 .48-.68l3.75-1.14a.52.51-8.7 0 1 .67.49v5.01q0 .56.56.53l3.47-.13q.6-.03.65.57l.22 2.96q.04.5-.46.5h-3.93q-.5 0-.51.5c0 3.08-1.85 13.84 4.27 11.77q.57-.2.57.41l-.03 2.61q-.01.53-.52.69c-11.43 3.54-8.85-9.59-9.17-15.4q-.03-.58-.61-.58h-5.76q-.5 0-.5.5Z"/><circle cx="112.41" cy="52.55" r="2.64" fill="#737373"/><path fill="#737373" d="M79.75 57.72v19.53q0 .75-.75.75h-3q-.75 0-.75-.75V51q0-.75.75-.75h5.69a.77.77 0 0 1 .72.49l7.74 19.54a.33.32 45.5 0 0 .6.01l7.92-19.44q.25-.6.9-.6H105q.5 0 .5.5V77.5q0 .5-.5.5h-3.75q-.5 0-.5-.5V58.27a.31.3-34.2 0 0-.59-.11l-7.58 18.66a2.4 2.4 0 0 1-4.44.01l-7.93-19.2a.24.24 0 0 0-.46.09ZM133.11 63.33c-5.73-3.8-11.25 1.29-9.67 7.44 1.21 4.7 6.01 5.32 9.78 2.96a.35.34-16.1 0 1 .53.29v3.21q0 .52-.48.7c-19.64 7.75-19.95-25.46.05-18.98a.74.74 0 0 1 .52.73l-.12 3.34q-.03.7-.61.31ZM147.91 62.9c-8.32-3.12-6.1 11.04-6.21 14.95a.66.66 0 0 1-.66.65h-3.66q-.63 0-.63-.62V59.16a.66.65-.4 0 1 .65-.65l3.79-.02a.6.6 0 0 1 .59.7l-.29 1.66a.42.42 0 0 0 .79.24q1.58-3.57 5.62-2.77.6.12.6.73v3.44a.44.44 0 0 1-.59.41Z"/><path fill="#737373" d="M155.614 78.467a10.55 10.23 110.1 0 1-5.98-13.423 10.55 10.23 110.1 0 1 13.232-6.391 10.55 10.23 110.1 0 1 5.98 13.423 10.55 10.23 110.1 0 1-13.232 6.391Zm3.656-3.217a6.65 5.41 90 0 0 5.41-6.65 6.65 5.41 90 0 0-5.41-6.65 6.65 5.41 90 0 0-5.41 6.65 6.65 5.41 90 0 0 5.41 6.65Z"/><path fill="#737373" d="M172.68 73.81c1.97 1.04 4.98 2.3 6.89.83a1.85 1.85 0 0 0-.33-3.14c-3.58-1.72-9.34-4.34-6.67-9.52 2.01-3.9 7.09-4.48 10.96-3.12q.43.15.44.6l.09 2.92a.64.64 0 0 1-.99.56c-1.41-.92-4.95-1.75-6.07.06q-.54.88.1 2.07.22.41.64.63c3.39 1.75 7.86 3.15 7.21 8.04-.75 5.59-8.37 5.97-12.5 4.22q-.53-.22-.51-.79l.09-2.98a.44.44 0 0 1 .65-.38Z"/><path fill="#737373" d="M194.467 78.576a10.55 10.22 108.3 0 1-6.39-13.225 10.55 10.22 108.3 0 1 13.016-6.807 10.55 10.22 108.3 0 1 6.39 13.225 10.55 10.22 108.3 0 1-13.016 6.807Zm3.402-3.336a6.64 5.4 89.4 0 0 5.33-6.697 6.64 5.4 89.4 0 0-5.469-6.583 6.64 5.4 89.4 0 0-5.33 6.696 6.64 5.4 89.4 0 0 5.47 6.584Z"/><rect width="4.74" height="20.06" x="110" y="58.51" fill="#737373" rx=".43"/><rect width="22" height="21.92" x="-11" y="-10.96" fill="#00a4ef" rx=".55" transform="rotate(-.1 43820.967 -14428.95)"/><rect width="22" height="21.8" x="-11" y="-10.9" fill="#ffb900" rx=".47" transform="rotate(-.1 43798.84 -28466.443)"/><path d="M57.15 138.17c5.41 3.38 20.86 6.76 19.61-4.72-.8-7.46-19.44-7.75-20.05-19.25-.65-12.14 15-13.26 22.98-10.7q.56.18.56.77v4.22q0 .72-.64.39c-4.43-2.27-11.94-3.45-15.97.3-3.67 3.4-1.44 7.86 2.2 9.94 6.17 3.55 17.2 7.44 16.09 16.7-1.41 11.74-16.69 11.4-24.88 7.99q-.55-.23-.55-.82v-4.46q0-.77.65-.36ZM31.3 103h4.34a.57.57 0 0 1 .53.37l15.82 41.11a.57.57 0 0 1-.53.77h-4.27a.57.57 0 0 1-.53-.37l-4.13-11.01a.57.57 0 0 0-.53-.37H24.76a.57.57 0 0 0-.53.38l-3.91 10.99a.57.57 0 0 1-.53.38h-4.28a.57.57 0 0 1-.53-.77l15.79-41.11a.57.57 0 0 1 .53-.37Zm2.1 5.58-7.08 19.74a.51.51 0 0 0 .48.68h13.01a.73.73 0 0 0 .67-1.01q-3.97-9.54-6.95-19.41a.07.07 0 0 0-.13 0ZM90.97 103.03c7.43-.11 22.13-2.04 24.62 8.24 3.41 14.03-7.52 18.87-19.17 17.9q-.92-.07-.92.84v14.62q0 .62-.63.62h-3.62q-.75 0-.75-.75v-40.99a.48.48 0 0 1 .47-.48Zm4.48 4.89.06 16.28a.56.56 0 0 0 .56.56l6.03-.03a9.17 8.2-.2 0 0 9.14-8.23v-1a9.17 8.2-.2 0 0-9.2-8.17l-6.03.03a.56.56 0 0 0-.56.56ZM161.45 138.16a.19.19 0 0 0 .35-.1l-.07-34.42q-.01-.64.63-.64H166q.75 0 .75.75v40.75q0 .75-.75.75h-4.85a.98.97 73.4 0 1-.82-.45l-22.63-35.1q-.23-.36-.23.06l.05 34.73q0 .76-.76.76h-3.51a.75.75 0 0 1-.75-.75v-40.84a.65.65 0 0 1 .65-.65l5.38-.01a.96.95 72.9 0 1 .82.44l22.1 34.72ZM183.27 140.75h16.46a.52.52 0 0 1 .52.52v3.46a.52.52 0 0 1-.52.52h-21.46a.52.52 0 0 1-.52-.52v-41.21a.52.52 0 0 1 .52-.52h20.46a.52.52 0 0 1 .52.52v3.46a.52.52 0 0 1-.52.52h-15.46a.52.52 0 0 0-.52.52v12.99a.52.52 0 0 0 .52.52l14.21-.05a.52.52 0 0 1 .52.52v3.48a.52.52 0 0 1-.52.52h-14.21a.52.52 0 0 0-.52.52v13.71a.52.52 0 0 0 .52.52ZM204 106.91v-3.32a.59.59 0 0 1 .59-.59h28.07a.59.59 0 0 1 .59.59v3.33a.59.59 0 0 1-.59.59l-11.08-.03a.59.59 0 0 0-.59.59l.04 36.59a.59.59 0 0 1-.59.59h-3.6a.59.59 0 0 1-.59-.59v-36.57a.59.59 0 0 0-.59-.59h-11.07a.59.59 0 0 1-.59-.59Z"/><circle cx="120.57" cy="142.56" r="3.24"/></svg>