<svg width="194" height="54" viewBox="0 0 194 54" fill="none" xmlns="http://www.w3.org/2000/svg">
<g clip-path="url(#clip0_12737_49466)">
<mask id="mask0_12737_49466" style="mask-type:luminance" maskUnits="userSpaceOnUse" x="0" y="-1" width="194" height="53">
<path d="M193.5 -0.09375H0.5V51.5106H193.5V-0.09375Z" fill="white"/>
</mask>
<g mask="url(#mask0_12737_49466)">
<path d="M9.93833 -0.09375C4.73404 -0.09375 0.5 4.14044 0.5 9.34518C0.5 14.5493 4.73404 18.7838 9.93833 18.7838C15.1429 18.7838 19.3767 14.5493 19.3767 9.34518C19.3767 4.14044 15.1429 -0.09375 9.93833 -0.09375Z" fill="#0B23A9"/>
<path d="M20.6197 29.4698C17.2198 29.4698 14.0073 28.6092 11.1875 27.0975V31.3798C11.1875 36.5764 15.3367 40.8883 20.5328 40.9384C25.7797 40.9889 30.0645 36.7356 30.0645 31.5002V27.0938C27.2418 28.6089 24.0241 29.4698 20.6197 29.4698Z" fill="#0B23A9"/>
<path d="M21.8496 9.34966C21.84 15.9158 16.5099 21.2481 9.92061 21.2639C7.3787 21.2703 4.99342 20.4789 3.04688 19.0974C6.49704 25.2646 13.0802 29.47 20.6075 29.4557C31.5421 29.4647 40.5644 20.5622 40.7465 9.64313L40.7205 9.61973C40.7314 9.3477 40.7179 9.5705 40.7314 9.3477C40.7363 4.13935 36.4957 -0.111617 31.3133 -0.0936935C26.0818 -0.0732543 21.8546 4.14135 21.8496 9.34966Z" fill="url(#paint0_linear_12737_49466)"/>
<path d="M65.1335 23.7722C65.1335 29.1069 61.286 31.3111 57.3679 31.3111C53.4322 31.3111 49.6016 29.1069 49.6016 23.7722V14.1172H53.275V23.4398C53.275 26.6757 55.0764 27.8652 57.3679 27.8652C59.659 27.8652 61.4605 26.6757 61.4605 23.4398V14.1172H65.1335V23.7722Z" fill="#0B23A9"/>
<path d="M72.4032 8.48438H68.625V30.8731H72.4032V8.48438Z" fill="#0B23A9"/>
<path d="M83.8732 17.0201H79.5356V25.4158C79.5356 27.6547 81.005 27.62 83.8732 27.48V30.8734C78.1013 31.5728 75.7578 29.9987 75.7578 25.4158V8.48438H79.5356V13.3821H83.8732V17.0201Z" fill="#0B23A9"/>
<path d="M121.653 8.48438H117.875V30.8731H121.653V8.48438Z" fill="#0B23A9"/>
<path d="M151.475 17.0201H147.137V25.4158C147.137 27.6547 148.606 27.62 151.475 27.48V30.8734C145.703 31.5728 143.359 29.9987 143.359 25.4158V8.48438H147.137V13.3821H151.475V17.0201Z" fill="#0B23A9"/>
<path d="M154.252 15.3186H158.031V30.8742H154.252V15.3186ZM154.427 11.9952C153.483 11.0159 153.483 9.54615 154.427 8.60213C155.372 7.62221 156.911 7.62221 157.856 8.60213C158.8 9.54615 158.8 11.0159 157.821 11.9952C156.876 12.9398 155.407 12.9398 154.427 11.9952Z" fill="#0B23A9"/>
<path d="M137.38 13.3828H141.403L134.686 31.4339C132.638 36.8374 131.083 37.8705 126.117 37.8705L126.151 34.3374C128.53 34.4771 129.859 33.3228 130.803 30.9091L130.978 30.5589L123.562 13.3828H127.69L132.902 26.0813L137.38 13.3828Z" fill="#0B23A9"/>
<path d="M163.397 28.6641C161.648 26.8798 160.773 24.711 160.773 22.1223C160.773 19.4987 161.648 17.3295 163.397 15.5805C165.181 13.7966 167.385 12.9219 170.008 12.9219C173.402 12.9219 176.41 14.6712 177.809 17.4345L174.556 19.3238C173.751 17.6447 172.072 16.6301 169.973 16.6301C168.434 16.6301 167.14 17.1546 166.09 18.2042C165.076 19.2535 164.551 20.5482 164.551 22.1223C164.551 23.6964 165.076 24.9909 166.09 26.0405C167.14 27.0898 168.434 27.6145 169.973 27.6145C172.037 27.6145 173.787 26.565 174.626 24.9209L177.879 26.7749C176.375 29.5735 173.402 31.3228 170.008 31.3228C167.385 31.3228 165.181 30.4481 163.397 28.6641Z" fill="#0B23A9"/>
<path d="M187.234 20.478C189.928 21.0727 193.426 22.1923 193.356 25.9355C193.356 27.6145 192.692 28.944 191.397 29.8883C190.103 30.833 188.494 31.3227 186.535 31.3227C183.071 31.3227 180.518 29.7837 179.398 27.2297L182.652 25.3407C183.246 27.0198 184.54 27.8594 186.535 27.8594C188.529 27.8594 189.508 27.1947 189.508 25.9002C189.508 24.781 188.039 24.1162 186.185 23.6614C183.561 22.9967 180.028 21.9474 180.098 18.2742C180.098 16.6648 180.693 15.3706 181.917 14.3913C183.141 13.4117 184.681 12.9219 186.499 12.9219C189.403 12.9219 191.747 14.2863 192.971 16.5598L189.788 18.3441C189.193 17.0146 188.074 16.3502 186.499 16.3502C185.066 16.3502 183.946 16.9799 183.946 18.2042C183.946 19.3584 185.415 19.9535 187.234 20.478Z" fill="#0B23A9"/>
<path d="M105.743 27.7198C107.317 27.7198 108.646 27.195 109.696 26.1457C110.745 25.0609 111.269 23.7317 111.269 22.1226C111.269 20.5133 110.745 19.1838 109.696 18.1345C108.646 17.05 107.317 16.5254 105.743 16.5254C104.168 16.5254 102.839 17.05 101.789 18.1345C100.74 19.1838 100.216 20.5133 100.216 22.1226C100.216 23.7317 100.74 25.0609 101.789 26.1457C102.839 27.195 104.168 27.7198 105.743 27.7198ZM111.269 13.377H115.048V30.8683H111.269V28.3495C109.836 30.3435 107.806 31.3228 105.148 31.3228C102.734 31.3228 100.705 30.4481 98.991 28.6644C97.277 26.8801 96.4375 24.676 96.4375 22.1226C96.4375 19.5339 97.277 17.3648 98.991 15.5808C100.705 13.7966 102.734 12.9219 105.148 12.9219C107.806 12.9219 109.836 13.9018 111.269 15.8607V13.377Z" fill="#0B23A9"/>
<path d="M90.3353 16.5589C91.2551 14.4469 93.0268 13.3906 95.5817 13.3906V17.3767C94.1848 17.2744 92.9585 17.6149 91.9023 18.3986C90.8465 19.1479 90.3353 20.4082 90.3353 22.1459V30.7306H86.6562V13.6974H90.3353V16.5589Z" fill="#0B23A9"/>
<path d="M59.1541 39.25L55.0517 46.5484V51.2151H52.7104V46.5484L48.625 39.25H51.2916L53.8895 44.2413L56.4879 39.25H59.1541Z" fill="#00B4FF"/>
<path d="M67.4707 49.1515C68.5646 49.1515 69.4874 48.7926 70.2224 48.0577C70.9578 47.3228 71.3333 46.3826 71.3333 45.2372C71.3333 44.0921 70.9578 43.1523 70.2224 42.417C69.4874 41.6817 68.5646 41.3062 67.4707 41.3062C66.3767 41.3062 65.4536 41.6817 64.7185 42.417C63.9838 43.1523 63.6076 44.0921 63.6076 45.2372C63.6076 46.3826 63.9838 47.3228 64.7185 48.0577C65.4536 48.7926 66.3767 49.1515 67.4707 49.1515ZM67.4707 51.4594C65.7442 51.4594 64.2741 50.8609 63.0603 49.6646C61.8639 48.4509 61.2656 46.9808 61.2656 45.2372C61.2656 43.4939 61.8639 42.0237 63.0603 40.8274C64.2741 39.6138 65.7442 39.0156 67.4707 39.0156C69.1967 39.0156 70.6668 39.6138 71.8803 40.8274C73.094 42.0237 73.6923 43.4939 73.6923 45.2372C73.6923 46.9808 73.094 48.4509 71.8803 49.6646C70.6668 50.8609 69.1967 51.4594 67.4707 51.4594Z" fill="#00B4FF"/>
<path d="M80.1086 48.9592H84.6724V51.2154H77.75V39.25H80.1086V48.9592Z" fill="#00B4FF"/>
<path d="M93.3144 49.1515C94.4083 49.1515 95.3311 48.7926 96.0662 48.0577C96.8008 47.3228 97.177 46.3826 97.177 45.2372C97.177 44.0921 96.8008 43.1523 96.0662 42.417C95.3311 41.6817 94.4083 41.3062 93.3144 41.3062C92.2205 41.3062 91.2973 41.6817 90.5623 42.417C89.8272 43.1523 89.4514 44.0921 89.4514 45.2372C89.4514 46.3826 89.8272 47.3228 90.5623 48.0577C91.2973 48.7926 92.2205 49.1515 93.3144 49.1515ZM93.3144 51.4594C91.588 51.4594 90.1178 50.8609 88.9044 49.6646C87.7076 48.4509 87.1094 46.9808 87.1094 45.2372C87.1094 43.4939 87.7076 42.0237 88.9044 40.8274C90.1178 39.6138 91.588 39.0156 93.3144 39.0156C95.0405 39.0156 96.5106 39.6138 97.724 40.8274C98.9378 42.0237 99.536 43.4939 99.536 45.2372C99.536 46.9808 98.9378 48.4509 97.724 49.6646C96.5106 50.8609 95.0405 51.4594 93.3144 51.4594Z" fill="#00B4FF"/>
</g>
<path d="M106.542 50.7188L103.518 42.6033H105.786L106.974 46.0285C107.036 46.2033 107.108 46.4348 107.19 46.7228C107.283 47.0108 107.375 47.3142 107.468 47.633C107.56 47.9519 107.638 48.2399 107.699 48.497H107.776C107.848 48.2605 107.926 47.9879 108.008 47.6793C108.09 47.3605 108.172 47.057 108.255 46.769C108.347 46.4707 108.424 46.2239 108.486 46.0285L109.674 42.6033H111.834L108.795 50.7188H106.542Z" fill="#00B4FF"/>
<path d="M118.718 51.3755C117.733 51.3755 116.919 51.2284 116.274 50.9343C115.64 50.6401 115.165 50.2384 114.848 49.7293C114.543 49.2088 114.39 48.6262 114.39 47.9812C114.39 47.325 114.543 46.7706 114.848 46.318C115.165 45.8542 115.64 45.4864 116.274 45.2149C115.731 44.8868 115.335 44.5078 115.086 44.0778C114.848 43.6366 114.729 43.1444 114.729 42.6013C114.729 41.9677 114.882 41.4076 115.187 40.9211C115.493 40.4233 115.946 40.033 116.545 39.7501C117.145 39.4672 117.869 39.3258 118.718 39.3258C119.555 39.3258 120.268 39.4672 120.856 39.7501C121.456 40.033 121.914 40.4233 122.231 40.9211C122.547 41.4076 122.706 41.9677 122.706 42.6013C122.706 43.1444 122.576 43.6366 122.315 44.0778C122.067 44.5191 121.676 44.8981 121.144 45.2149C121.789 45.4864 122.265 45.8542 122.57 46.318C122.876 46.7706 123.028 47.325 123.028 47.9812C123.028 48.6262 122.87 49.2088 122.553 49.7293C122.248 50.2384 121.772 50.6401 121.127 50.9343C120.494 51.2284 119.691 51.3755 118.718 51.3755ZM118.718 49.5596C119.317 49.5596 119.781 49.4068 120.109 49.1014C120.449 48.7959 120.618 48.3772 120.618 47.8455C120.618 47.2911 120.449 46.8668 120.109 46.5726C119.77 46.2671 119.306 46.1144 118.718 46.1144C118.118 46.1144 117.648 46.2671 117.309 46.5726C116.969 46.8668 116.8 47.2911 116.8 47.8455C116.8 48.3772 116.964 48.7959 117.292 49.1014C117.631 49.4068 118.107 49.5596 118.718 49.5596ZM118.718 44.3324C119.227 44.3324 119.64 44.1966 119.956 43.9251C120.273 43.6535 120.432 43.2575 120.432 42.7371C120.432 42.2166 120.273 41.8206 119.956 41.5491C119.651 41.2662 119.238 41.1248 118.718 41.1248C118.186 41.1248 117.767 41.2662 117.462 41.5491C117.156 41.8206 117.003 42.2166 117.003 42.7371C117.003 43.2575 117.156 43.6535 117.462 43.9251C117.767 44.1966 118.186 44.3324 118.718 44.3324Z" fill="#00B4FF"/>
</g>
<defs>
<linearGradient id="paint0_linear_12737_49466" x1="11.9137" y1="29.1214" x2="35.2729" y2="3.24602" gradientUnits="userSpaceOnUse">
<stop stop-color="#00DEF3"/>
<stop offset="1" stop-color="#0B23A9"/>
</linearGradient>
<clipPath id="clip0_12737_49466">
<rect width="193" height="54" fill="white" transform="translate(0.5)"/>
</clipPath>
</defs>
</svg>
